<?xml version="1.0" encoding="UTF-8"?>
<svg version="1.1" xmlns="http://www.w3.org/2000/svg" width="2072" height="569">
<path d="M0 0 C3.40183554 2.80767933 6.35287648 5.72787648 9.5 8.875 C9.83 1.945 10.16 -4.985 10.5 -12.125 C27.99 -12.125 45.48 -12.125 63.5 -12.125 C63.54525699 9.37276569 63.58205308 30.87049243 63.60362434 52.36829376 C63.61390927 62.35150363 63.62791601 72.33468167 63.65087891 82.31787109 C63.67089841 91.02560782 63.68373663 99.73332147 63.68817699 108.44108057 C63.69076996 113.04594946 63.69680564 117.65075237 63.71146011 122.25559998 C63.72517975 126.60250288 63.72919404 130.94931353 63.72621536 135.29623604 C63.72675917 136.87950202 63.73065003 138.46277155 63.73841095 140.0460186 C63.86902842 168.10252167 58.08465033 194.63801587 38.078125 215.38671875 C15.71300934 236.99089112 -13.22180943 243.36977883 -43.39453125 243.0859375 C-69.92127926 242.51967934 -96.05574066 233.41072545 -117.5 217.875 C-111.03319148 204.77020273 -104.28973287 191.81495183 -97.5 178.875 C-96.78424805 179.26606934 -96.06849609 179.65713867 -95.33105469 180.06005859 C-93.34426462 181.14482329 -91.35693557 182.22860124 -89.36914062 183.31152344 C-87.75202614 184.19273525 -86.13558523 185.07519429 -84.52148438 185.96191406 C-63.98199799 197.16638837 -41.10121947 199.86527374 -18.30859375 194.0625 C-4.51661011 189.83507206 5.67504281 182.6657155 12.5 169.875 C15.53420569 162.46716449 17.68457639 155.05704183 17.5625 147 C17.55347656 146.21882812 17.54445313 145.43765625 17.53515625 144.6328125 C17.52355469 144.05273438 17.51195312 143.47265625 17.5 142.875 C17.00113281 143.3596875 16.50226563 143.844375 15.98828125 144.34375 C-2.33285623 161.44786399 -23.38691417 167.72496371 -47.92578125 167.16015625 C-70.79736892 166.23632501 -92.35621251 156.09452576 -107.93164062 139.33447266 C-124.65333752 120.16671924 -130.39386139 95.72452914 -129.375 70.75 C-127.64855376 51.24900494 -122.1540782 33.10719881 -109.5 17.875 C-108.80003906 17.02421875 -108.10007812 16.1734375 -107.37890625 15.296875 C-95.67677855 1.6965412 -80.95350499 -8.56982699 -63.5 -13.125 C-62.6440625 -13.34929687 -61.788125 -13.57359375 -60.90625 -13.8046875 C-39.06527141 -18.60707135 -17.56159989 -13.7078762 0 0 Z M-66.6640625 44.48046875 C-75.48904309 55.99049663 -77.55229699 69.928574 -75.8125 84.0625 C-74.39662 92.60529277 -71.72173571 99.91268572 -66.5 106.875 C-65.778125 107.865 -65.05625 108.855 -64.3125 109.875 C-56.14477847 119.45008278 -43.80640454 123.19414717 -31.6875 124.1875 C-21.71265418 123.84423607 -13.28111866 121.0587752 -5.5 114.875 C-4.448125 114.111875 -3.39625 113.34875 -2.3125 112.5625 C6.79013947 103.86442229 10.78178981 92.17641062 11.73828125 79.7890625 C12.07359058 64.92956485 9.10409164 52.22095424 -1.0625 41.0625 C-10.39231818 32.68958625 -20.69128901 28.44380109 -33.35546875 28.734375 C-46.06763558 29.56795971 -58.02502311 35.05460235 -66.6640625 44.48046875 Z " fill="#EE7121" transform="translate(751.5,236.125)"/>
<path d="M0 0 C3.56757457 2.67568093 5.23624763 4.66435524 6 9 C6.61103371 19.20284202 6.61103371 19.20284202 4.9375 24.125 C2.53787479 31.48385063 5.58589487 40.5487363 7.3125 47.875 C7.51294922 48.79796875 7.71339844 49.7209375 7.91992188 50.671875 C8.12810547 51.56132812 8.33628906 52.45078125 8.55078125 53.3671875 C8.73294189 54.16237793 8.91510254 54.95756836 9.1027832 55.77685547 C10.2762596 58.68452244 11.49479459 60.10661115 14 62 C16.97284569 62.58150658 16.97284569 62.58150658 20.26953125 62.4609375 C21.48833984 62.45707031 22.70714844 62.45320313 23.96289062 62.44921875 C25.23326172 62.42472656 26.50363281 62.40023437 27.8125 62.375 C29.07126953 62.37371094 30.33003906 62.37242187 31.62695312 62.37109375 C37.86493872 62.31190359 43.07184198 61.88232747 49 60 C50.05128393 55.66240708 51.08426446 51.32098087 52.10058594 46.97509766 C52.44878672 45.49767589 52.80194043 44.02141224 53.16015625 42.54638672 C53.6745745 40.42441143 54.17096448 38.29889187 54.6640625 36.171875 C55.11966553 34.2552002 55.11966553 34.2552002 55.58447266 32.29980469 C56.01905634 28.84866896 55.93125635 27.78640519 54 25 C50.47575546 19.60997894 49.07386381 16.48295331 50 10 C53.1234132 4.98360911 56.34452186 2.65764014 62 1 C66.36463257 1 68.3583369 1.52572728 71.875 4.125 C74.50312559 7.68069933 75.07498014 9.57617173 75 14 C73.60473304 18.28371435 71.7808719 21.29270569 68.4296875 24.328125 C65.50731862 27.5417911 65.19371099 29.3518702 64.75 33.625 C64.61335937 34.8625 64.47671875 36.1 64.3359375 37.375 C64.22507812 38.57125 64.11421875 39.7675 64 41 C63.88914062 41.969375 63.77828125 42.93875 63.6640625 43.9375 C61.93224686 57.93215719 61.93224686 57.93215719 66 71 C69.09482807 74.79366022 71.40055121 75.71274207 76.15625 76.23828125 C83.43071033 76.46863916 89.24862906 74.54707102 96 72 C98.47765234 71.0999869 100.95683997 70.20418971 103.4375 69.3125 C104.57058594 68.89613281 105.70367187 68.47976562 106.87109375 68.05078125 C118.21677395 64.24055906 130.52030601 64.87671237 141.2734375 70.10546875 C143 72 143 72 143.47265625 75.6875 C143.22710444 80.33916541 141.60615218 83.93667215 139.4375 88 C139.07325928 88.69915527 138.70901855 89.39831055 138.33374023 90.11865234 C133.02126695 100.01817313 126.16728924 107.07999327 115.625 111.375 C107.69579734 112.74210391 100.42796033 112.0436715 92.59375 110.4453125 C89.00330298 109.82888033 85.63406416 109.8628655 82 110 C80.02 115.445 80.02 115.445 78 121 C77.10796875 121.13277344 76.2159375 121.26554687 75.296875 121.40234375 C73.54117188 121.66724609 73.54117188 121.66724609 71.75 121.9375 C70.00976562 122.19853516 70.00976562 122.19853516 68.234375 122.46484375 C64.56544897 123.03079117 64.56544897 123.03079117 61 124 C59.8974827 126.16621868 59.8974827 126.16621868 59 129 C58.34196768 130.2338106 57.67444703 131.46258517 57 132.6875 C52.36948235 142.0109259 52.74349146 151.92802975 52.875 162.125 C52.88505718 163.47655581 52.89417816 164.82811893 52.90234375 166.1796875 C52.92572681 169.45331558 52.95849939 172.72655994 53 176 C53.04487549 175.28569824 53.08975098 174.57139648 53.13598633 173.83544922 C55.56590128 136.2701139 55.56590128 136.2701139 62.625 128.125 C66.3155694 126.37683555 69.98503847 126.7683676 74 127 C75.1480626 133.18465042 75.18385943 139.16478941 75.1875 145.4375 C75.19974609 146.54416016 75.21199219 147.65082031 75.22460938 148.79101562 C75.24435544 159.80273948 72.09510696 167.15866074 66.9375 176.75 C65.84055962 178.80628545 64.74542152 180.86353367 63.65234375 182.921875 C63.16757568 183.82518555 62.68280762 184.72849609 62.18334961 185.65917969 C60.29243398 189.39965813 59.86366688 192.30648026 59.7890625 196.4453125 C59.76070312 197.52296875 59.73234375 198.600625 59.703125 199.7109375 C59.65158153 201.96338699 59.60715634 204.21601212 59.5703125 206.46875 C59.35598076 213.988222 58.97615137 221.18276237 54.203125 227.3046875 C46.360201 233.6103984 39.14609433 236.43887896 29.07421875 235.8203125 C19.8952613 234.67731653 13.1455897 230.94718835 7 224 C8.34690235 229.52229965 10.85938844 233.21402415 15 237 C22.6104846 241.47675565 31.41764947 241.01828984 40 241 C39.86795166 242.17111328 39.73590332 243.34222656 39.59985352 244.54882812 C38.15440301 257.85565456 37.43951825 271.12815875 36.9375 284.5 C36.82145923 287.53442998 36.70360883 290.56874522 36.58070374 293.60290527 C36.50529959 295.46805805 36.43383379 297.33337558 36.3669281 299.19885254 C36.33341751 300.03493042 36.29990692 300.8710083 36.26538086 301.73242188 C36.2381041 302.4626355 36.21082733 303.19284912 36.182724 303.94519043 C35.99552268 306.05034935 35.5670084 307.96699541 35 310 C26.06268356 310.17682879 17.12517797 310.3425811 8.1875 310.5 C7.17648916 310.51781588 7.17648916 310.51781588 6.14505386 310.53599167 C-24.2383378 311.06695454 -54.61226362 311.11177646 -85 311 C-83.47090315 306.96759648 -81.66975797 304.02894141 -79 300.625 C-49.40673113 262.09473256 -27.20862504 217.49973649 -17 170 C-14.68751764 172.24537284 -12.98763893 174.42578447 -11.3125 177.1875 C-10.87550781 177.90292969 -10.43851562 178.61835938 -9.98828125 179.35546875 C-9.66214844 179.89816406 -9.33601563 180.44085938 -9 181 C-15.17291358 171.03200435 -16.55418638 162.98603671 -16.14453125 151.30517578 C-15.9260843 144.75067516 -16.3126219 139.47907961 -18.34375 133.20703125 C-19 131 -19 131 -19 127 C-15.44615334 125.22307667 -11.74726815 126.00645263 -8 127 C-2.94562416 129.95724476 -0.35260523 133.67568291 2 139 C2.66 139.33 3.32 139.66 4 140 C3.10280761 133.22418879 2.14078103 128.68382272 -3 124 C-9.15928616 120.40708307 -16.01133079 119.89328855 -23 119 C-23.33 115.7 -23.66 112.4 -24 109 C-25.19625 109.12375 -26.3925 109.2475 -27.625 109.375 C-28.63433594 109.47941406 -28.63433594 109.47941406 -29.6640625 109.5859375 C-32.11504371 109.95078027 -32.11504371 109.95078027 -34.78515625 111.015625 C-42.09653083 113.2543448 -51.98652749 113.32588829 -59.0625 110.3125 C-60.39614993 109.57886648 -61.71121619 108.80986206 -63 108 C-63.58652344 107.68417969 -64.17304688 107.36835938 -64.77734375 107.04296875 C-74.2306831 101.3195184 -81.3095691 89.29416864 -84.66015625 78.96484375 C-85.32189221 75.93884726 -85.23899392 74.37407744 -83.5625 71.75 C-74.49124405 65.55499593 -61.73215441 64.88852926 -51 66.4375 C-47.00822945 67.39634097 -43.55549041 69.17164602 -39.91210938 71.00732422 C-30.94202719 75.51402267 -23.40194355 78.40209915 -13.33984375 75.13671875 C-8.42359883 72.81049555 -6.06426847 70.24706235 -3.77416992 65.34570312 C-2.34839252 61.02565603 -2.54456106 56.75335352 -2.6875 52.25 C-2.71070313 50.80052979 -2.71070313 50.80052979 -2.734375 49.32177734 C-2.8713611 42.5238421 -3.20189741 35.75536832 -4 29 C-4.76054687 28.88011719 -5.52109375 28.76023437 -6.3046875 28.63671875 C-11.26093941 27.46589402 -14.15276836 24.27084746 -16.875 20.1875 C-18.25459949 16.27863479 -18.73555431 13.09458567 -18 9 C-14.0935733 1.33182906 -8.44780053 -1.65283054 0 0 Z M40.4375 191.0625 C37.15246006 195.49016253 36.7386387 200.64209333 37 206 C38.27310312 205.06558465 39.543388 204.12732889 40.8125 203.1875 C41.52019531 202.66542969 42.22789062 202.14335937 42.95703125 201.60546875 C46.83351909 198.74862971 46.83351909 198.74862971 48.375 194.4375 C48.25125 193.633125 48.1275 192.82875 48 192 C44.30174189 189.49479652 44.30174189 189.49479652 40.4375 191.0625 Z M13 192 C12.58129447 194.33071879 12.58129447 194.33071879 13 197 C15.99827098 200.10505252 15.99827098 200.10505252 20 201 C20.28875 201.639375 20.5775 202.27875 20.875 202.9375 C21.82823451 205.15206079 21.82823451 205.15206079 24 206 C23.67165553 198.1816545 23.67165553 198.1816545 21 191 C17.76989336 189.38494668 15.97559797 190.19338695 13 192 Z " fill="#ED7121" transform="translate(251,97)"/>
<path d="M0 0 C19.14 0 38.28 0 58 0 C64.88570782 13.77141565 64.88570782 13.77141565 67.6015625 20.63671875 C67.91567581 21.41790573 68.22978912 22.19909271 68.55342102 23.00395203 C69.22878544 24.68500749 69.9019175 26.3669613 70.57296753 28.04974365 C72.03993341 31.72786071 73.5185007 35.40128285 74.9962616 39.07507324 C75.78359666 41.03261939 76.5703823 42.99038661 77.35664368 44.94836426 C81.42750246 55.08135309 85.55077108 65.1927416 89.68170166 75.30136108 C90.9357927 78.37082129 92.1885022 81.44084223 93.44091797 84.51098633 C97.26563682 93.88328838 101.09956094 103.25161666 104.96070862 112.60897827 C106.65585991 116.7176179 108.34751471 120.82769345 110.03909302 124.93780518 C110.84139645 126.88388487 111.64563315 128.82916875 112.45187378 130.77362061 C113.56107867 133.44876352 114.66399877 136.12641673 115.765625 138.8046875 C116.09581131 139.59597046 116.42599762 140.38725342 116.76618958 141.20251465 C119 146.65858343 119 146.65858343 119 150 C119.66 150 120.32 150 121 150 C121.33773437 148.7315625 121.67546875 147.463125 122.0234375 146.15625 C124.29696773 138.59722517 127.45680349 131.39561035 130.51748657 124.13012695 C132.44619191 119.54983044 134.35709435 114.96210745 136.26953125 110.375 C136.66474472 109.42798218 137.05995819 108.48096436 137.46714783 107.50524902 C141.48482337 97.86467388 145.40606564 88.18606593 149.3125 78.5 C150.70792 75.04410385 152.10394631 71.5884527 153.5 68.1328125 C154.03212349 66.81544601 154.03212349 66.81544601 154.57499695 65.47146606 C158.86085119 54.86415356 163.16063018 44.26252524 167.47372437 33.66625977 C168.35823289 31.49177493 169.24157598 29.31681564 170.12368774 27.14135742 C171.35676908 24.10080707 172.5939142 21.06194015 173.83203125 18.0234375 C174.37627747 16.67776199 174.37627747 16.67776199 174.93151855 15.30490112 C175.27743042 14.45839996 175.62334229 13.6118988 175.97973633 12.73974609 C176.27487625 12.01371185 176.57001617 11.28767761 176.87409973 10.53964233 C178.45742672 6.96820324 180.25288228 3.49423543 182 0 C201.14 0 220.28 0 240 0 C239.15007243 5.09956542 237.88186625 9.15809567 235.88671875 13.83203125 C235.40480072 14.98352409 235.40480072 14.98352409 234.91314697 16.15827942 C234.2127164 17.83031688 233.50944724 19.50116743 232.80368042 21.17095947 C230.86097919 25.76853523 228.94009488 30.37523942 227.015625 34.98046875 C226.6083165 35.95350952 226.201008 36.92655029 225.78135681 37.92907715 C221.09663785 49.13243795 216.51658047 60.37815311 211.9375 71.625 C210.24385013 75.78139698 208.54966435 79.93757544 206.85546875 84.09375 C206.44328598 85.10512527 206.03110321 86.11650055 205.60643005 87.15852356 C201.66811653 96.81969663 197.71228491 106.47363732 193.75 116.125 C193.42699921 116.91183167 193.10399841 117.69866333 192.77120972 118.50933838 C191.15959448 122.4350484 189.54765776 126.36062631 187.93554688 130.28613281 C184.95587938 137.54214001 181.97929226 144.79941103 179.00238037 152.05654907 C178.00577975 154.48591101 177.00901966 156.91520746 176.01220703 159.34448242 C172.60239242 167.65457705 169.19435967 175.96539688 165.7890625 184.27734375 C153.86450446 213.38085717 153.86450446 213.38085717 148.0625 227.375 C147.65531738 228.36169678 147.24813477 229.34839355 146.82861328 230.36499023 C146.28116455 231.68092163 146.28116455 231.68092163 145.72265625 233.0234375 C145.41078369 233.77544434 145.09891113 234.52745117 144.77758789 235.30224609 C144 237 144 237 143 238 C141.55710213 238.09295815 140.10970215 238.11746513 138.66381836 238.11352539 C137.7429393 238.11344986 136.82206024 238.11337433 135.87327576 238.11329651 C134.87224319 238.10813522 133.87121063 238.10297394 132.83984375 238.09765625 C131.82024063 238.0962413 130.80063751 238.09482635 129.75013733 238.09336853 C126.47922893 238.08775097 123.20838787 238.0751955 119.9375 238.0625 C117.72591244 238.05748726 115.51432382 238.05292396 113.30273438 238.04882812 C107.86846643 238.03777584 102.43423803 238.02102063 97 238 C92.685925 228.93316386 88.78720906 219.75608298 85.05300903 210.4397583 C83.41869594 206.36324647 81.77288889 202.29136954 80.12890625 198.21875 C79.78864914 197.37502838 79.44839203 196.53130676 79.0978241 195.66201782 C75.45502862 186.63503538 71.76212619 177.62880833 68.0625 168.625 C67.39273153 166.99430723 66.72297245 165.3636106 66.05322266 163.73291016 C64.70782218 160.45755786 63.36205583 157.18235614 62.01611328 153.90722656 C59.00717272 146.58463998 56.00327323 139.25998531 52.99899292 131.93548584 C51.33286841 127.87357252 49.6664177 123.81179304 48 119.75 C47.33333177 118.12500064 46.6666651 116.50000064 46 114.875 C45.67 114.070625 45.34 113.26625 45 112.4375 C44 110 43 107.5625 42 105.125 C41.67002014 104.32067535 41.34004028 103.51635071 41.00006104 102.68765259 C40.33318735 101.06214543 39.66631723 99.4366368 38.99945068 97.81112671 C37.33598071 93.75637426 35.67244928 89.70164705 34.00878906 85.64697266 C30.97064206 78.2422223 27.93297323 70.83727742 24.89758301 63.43139648 C23.52101649 60.07293027 22.14403503 56.71463422 20.76708984 53.35632324 C19.76219303 50.90474648 18.75802623 48.45287159 17.75390625 46.00097656 C14.63668 38.39381477 11.50362167 30.79397843 8.328125 23.2109375 C7.75808807 21.84653779 7.18809971 20.4821178 6.61816406 19.11767578 C5.56869314 16.60565429 4.51241879 14.09687813 3.45214844 11.58935547 C2.99356445 10.49252441 2.53498047 9.39569336 2.0625 8.265625 C1.46115234 6.83911621 1.46115234 6.83911621 0.84765625 5.38378906 C0 3 0 3 0 0 Z " fill="#EE7121" transform="translate(897,169)"/>
<path d="M0 0 C2.45283921 2.16556975 4.81927945 4.39035048 7.1640625 6.671875 C7.79828125 7.25582031 8.4325 7.83976562 9.0859375 8.44140625 C26.51503456 24.90650458 34.02572224 48.55511239 35.10498047 71.89257812 C35.65418938 97.72809134 25.63142949 120.61683083 8.27734375 139.5546875 C-12.0620823 159.93170954 -38.46232981 167.94809542 -66.62915039 167.98876953 C-94.1454911 167.63785658 -117.4982995 157.34984378 -137.3984375 138.484375 C-155.38721088 119.98708505 -163.23096564 96.09497099 -163.13842773 70.671875 C-162.65272184 45.36998648 -152.19210226 22.86341602 -134.33203125 5.18310547 C-98.71472956 -28.6920456 -38.07325743 -31.255732 0 0 Z M-99.8359375 39.671875 C-109.9383377 52.88450489 -111.47421218 69.2697295 -109.36328125 85.25 C-106.88462356 97.77686881 -100.63157273 108.7190504 -90.2109375 116.21875 C-83.7217586 120.18910288 -76.47776801 123.24732886 -68.8359375 123.671875 C-68.1140625 123.72214844 -67.3921875 123.77242188 -66.6484375 123.82421875 C-54.29196274 124.31926982 -43.44858737 120.8590486 -33.875 113.078125 C-23.08508886 103.08921163 -18.94633226 89.94194824 -17.8359375 75.671875 C-17.6711459 60.65936066 -21.51530032 46.41958913 -32.04296875 35.3515625 C-41.33868755 26.76846269 -51.07114807 22.90340927 -63.8359375 22.296875 C-78.5710415 23.05576448 -90.38812556 28.33042834 -99.8359375 39.671875 Z " fill="#EE7121" transform="translate(1629.8359375,242.328125)"/>
<path d="M0 0 C14.95226334 13.16424979 23.25169387 30.86960434 25 50.625 C25.1359075 54.60011874 25.12660364 58.57172278 25.11352539 62.54882812 C25.11367142 63.7204248 25.11381744 64.89202148 25.1139679 66.09912109 C25.11327413 69.95151657 25.10550689 73.80386302 25.09765625 77.65625 C25.09579016 80.3352466 25.09431793 83.01424053 25.09336853 85.6932373 C25.09026921 92.01118782 25.08207479 98.32912088 25.07201904 104.64706373 C25.05971371 112.55116413 25.05426426 120.4552674 25.04882812 128.359375 C25.03910848 142.44793023 25.01907295 156.53644743 25 170.625 C7.51 170.625 -9.98 170.625 -28 170.625 C-28.03738281 162.46265625 -28.07476563 154.3003125 -28.11328125 145.890625 C-28.14743084 140.04424997 -28.18342681 134.19790901 -28.22207737 128.35156441 C-28.2718299 120.78891925 -28.31730654 113.22632997 -28.34643555 105.66357422 C-28.37199957 99.0304216 -28.41299136 92.39747717 -28.46318626 85.7644577 C-28.47980743 83.24009771 -28.49135116 80.71569876 -28.49761391 78.19129181 C-28.50730655 74.64193868 -28.53542836 71.09315622 -28.56762695 67.54394531 C-28.56619186 66.51175369 -28.56475677 65.47956207 -28.5632782 64.41609192 C-28.71132405 52.79591944 -31.05555032 41.09395995 -39.125 32.3125 C-49.05268569 26.48538014 -58.45728662 25.15249563 -69.625 27.75 C-78.47569019 30.46068147 -85.89112981 35.86217127 -91 43.625 C-93.8756971 49.9270596 -96.1036118 56.3995326 -96.15821838 63.35797119 C-96.17290161 64.77979706 -96.17290161 64.77979706 -96.18788147 66.23034668 C-96.19363693 67.26324829 -96.1993924 68.2961499 -96.20532227 69.36035156 C-96.21522186 70.45333557 -96.22512146 71.54631958 -96.23532104 72.67242432 C-96.26692024 76.28680247 -96.29168736 79.90119378 -96.31640625 83.515625 C-96.33697713 86.02097923 -96.35797364 88.52633001 -96.37937927 91.03167725 C-96.42894266 96.95306977 -96.47421162 102.87448527 -96.51740164 108.79592681 C-96.58033974 117.3830482 -96.65196136 125.97009791 -96.72252655 134.55715942 C-96.82051853 146.57973807 -96.90938672 158.60235328 -97 170.625 C-114.49 170.625 -131.98 170.625 -150 170.625 C-150 110.235 -150 49.845 -150 -12.375 C-132.84 -12.375 -115.68 -12.375 -98 -12.375 C-95.88074396 -10.25574396 -96.58168983 -5.7553907 -96.4375 -2.8125 C-96.39431641 -2.00619141 -96.35113281 -1.19988281 -96.30664062 -0.36914062 C-96.20024738 1.62868805 -96.09959112 3.6268207 -96 5.625 C-95.22398438 4.98433594 -94.44796875 4.34367187 -93.6484375 3.68359375 C-65.67884537 -18.90840966 -29.20286989 -22.74919699 0 0 Z " fill="#ED7121" transform="translate(1836,236.375)"/>
<path d="M0 0 C15.04547174 12.63050255 23.08201258 28.90036375 25.75 48.30859375 C26.00470278 52.49188613 26.00417889 56.65840653 25.97705078 60.84838867 C25.97734283 62.04968414 25.97763489 63.25097961 25.97793579 64.48867798 C25.97679056 67.74625789 25.96683933 71.00366043 25.95278788 74.26120543 C25.94018828 77.67911857 25.93910281 81.09703609 25.93673706 84.51496887 C25.93054917 90.97096629 25.91417525 97.42689505 25.89403808 103.88286239 C25.87159472 111.23967881 25.86066455 118.5964987 25.85064721 125.95334089 C25.82980626 141.07180291 25.79316417 156.19017589 25.75 171.30859375 C8.59 171.30859375 -8.57 171.30859375 -26.25 171.30859375 C-26.29898438 163.67476562 -26.34796875 156.0409375 -26.3984375 148.17578125 C-26.43385452 143.31769569 -26.4698321 138.45962705 -26.5078125 133.6015625 C-26.56794309 125.90350871 -26.62608335 118.2054784 -26.671875 110.50732422 C-26.70895499 104.29564512 -26.75537453 98.0840975 -26.80806351 91.87253189 C-26.82648745 89.51170297 -26.84163884 87.150846 -26.85334396 84.78997421 C-26.0893483 58.57736244 -26.0893483 58.57736244 -36.00390625 35.11328125 C-42.18026473 29.14904013 -49.32078491 27.23081572 -57.75 26.93359375 C-68.04395406 27.28106899 -77.87595361 31.03730159 -85.29296875 38.3125 C-94.11205404 48.82394707 -95.37827462 60.83510818 -95.45532227 74.01733398 C-95.46522186 75.07174179 -95.47512146 76.1261496 -95.48532104 77.21250916 C-95.51678508 80.68071281 -95.54163358 84.14893014 -95.56640625 87.6171875 C-95.58698882 90.02857306 -95.60798563 92.43995512 -95.62937927 94.85133362 C-95.68446534 101.18550777 -95.73393384 107.51971376 -95.78222656 113.85394287 C-95.84139253 121.46070574 -95.90754618 129.06741067 -95.97252655 136.67412567 C-96.07036656 148.21891286 -96.15933864 159.76373791 -96.25 171.30859375 C-113.41 171.30859375 -130.57 171.30859375 -148.25 171.30859375 C-148.25 110.91859375 -148.25 50.52859375 -148.25 -11.69140625 C-131.09 -11.69140625 -113.93 -11.69140625 -96.25 -11.69140625 C-95.755 -2.28640625 -95.755 -2.28640625 -95.25 7.30859375 C-94.05375 6.15359375 -92.8575 4.99859375 -91.625 3.80859375 C-82.92013249 -3.91081706 -72.41110166 -9.45383478 -61.25 -12.69140625 C-60.47785156 -12.91570312 -59.70570313 -13.14 -58.91015625 -13.37109375 C-38.36239983 -18.36272842 -16.38345334 -12.99156651 0 0 Z " fill="#F07221" transform="translate(576.25,235.69140625)"/>
<path d="M0 0 C-0.69628137 3.80710542 -2.40035906 6.79280266 -4.2734375 10.15625 C-4.76005356 11.03247009 -4.76005356 11.03247009 -5.25650024 11.9263916 C-5.94187684 13.15806618 -6.62953881 14.38847146 -7.31933594 15.61767578 C-8.36974858 17.49063635 -9.4119676 19.36797571 -10.453125 21.24609375 C-16.03056999 31.24937973 -16.03056999 31.24937973 -19 35 C-22.62412381 33.6505182 -25.99970022 31.98417833 -29.41845703 30.18188477 C-47.79688263 20.56154566 -66.83192572 17.09483592 -87.0625 22.875 C-89.09486698 23.81806333 -89.09486698 23.81806333 -89.8125 25.625 C-89.874375 26.40875 -89.93625 27.1925 -90 28 C-90.1546875 29.9490625 -90.1546875 29.9490625 -90.3125 31.9375 C-90.48372687 34.90740055 -90.04719792 35.9300188 -88.34716797 38.45068359 C-85.6903011 41.33637153 -83.63660175 42.40768917 -80.01953125 43.88671875 C-79.41736282 44.13362961 -78.8151944 44.38054047 -78.19477844 44.63493347 C-68.65472658 48.4535668 -58.8057343 51.51737144 -49.03051758 54.66918945 C-9.93984455 67.31946078 -9.93984455 67.31946078 -0.5 84.9375 C5.59095408 98.58192538 5.75921562 113.85451307 1 127.96484375 C-5.0755568 143.81325343 -16.70647077 154.27196448 -31.890625 161.2734375 C-58.64379248 172.91018283 -90.3636343 169.3201374 -117.06640625 159.21826172 C-129.52484733 154.28039288 -142.225289 148.30924857 -152 139 C-146.2853906 129.56569939 -139.82277303 120.71017361 -133.30932617 111.81835938 C-132.17077428 110.23716703 -131.08080734 108.62121101 -130 107 C-125.97163989 108.44873134 -122.64509751 110.41882684 -119.0625 112.75 C-102.16735347 123.36773612 -79.32730781 131.22810118 -59.1484375 127.46875 C-54.4816734 126.20225355 -50.98374957 125.02157551 -48 121 C-46.42787849 117.85575698 -46.4820625 114.42208708 -47 111 C-50.66515141 103.25455058 -58.90980404 100.08117511 -66.5703125 97.2421875 C-70.82609593 95.73238457 -75.1073952 94.30031517 -79.39208984 92.875 C-117.68296551 80.02773372 -117.68296551 80.02773372 -130 66 C-130.49113281 65.45085937 -130.98226563 64.90171875 -131.48828125 64.3359375 C-140.03256983 54.0319071 -141.06308464 42.12926715 -140.22314453 29.24316406 C-139.23266999 19.28640243 -135.17177262 11.6876466 -129 4 C-128.37609375 3.17242187 -127.7521875 2.34484375 -127.109375 1.4921875 C-95.36583215 -36.01222053 -35.71881228 -21.7629127 0 0 Z " fill="#EE7121" transform="translate(1366,242)"/>
<path d="M0 0 C17.49 0 34.98 0 53 0 C53 60.39 53 120.78 53 183 C35.51 183 18.02 183 0 183 C0 122.61 0 62.22 0 0 Z " fill="#EC7021" transform="translate(1144,224)"/>
<path d="M0 0 C17.16 0 34.32 0 52 0 C52 60.39 52 120.78 52 183 C34.84 183 17.68 183 0 183 C0 122.61 0 62.22 0 0 Z " fill="#F07221" transform="translate(1393,224)"/>
<path d="M0 0 C17.16 0 34.32 0 52 0 C52 60.39 52 120.78 52 183 C34.84 183 17.68 183 0 183 C0 122.61 0 62.22 0 0 Z " fill="#F07221" transform="translate(343,224)"/>
<path d="M0 0 C6.71334402 5.27271225 10.81585756 12.23667332 12.0078125 20.6796875 C12.73332689 29.67606599 10.56637072 37.80145484 4.80859375 44.859375 C-1.90254557 51.64330325 -9.2665889 54.66444406 -18.7421875 55.0546875 C-27.09830279 54.88735603 -35.26683927 52.50977882 -41.42578125 46.6328125 C-47.64219153 38.88167748 -50.63205517 30.26668984 -49.80078125 20.41015625 C-48.48230732 12.48543401 -44.41415785 5.25001431 -38.1171875 0.2421875 C-26.31344202 -7.589997 -11.96979991 -7.93292622 0 0 Z " fill="#ED7121" transform="translate(1437.9921875,155.3203125)"/>
<path d="M0 0 C6.98401459 4.99895672 11.62644632 10.65233241 14 19 C15.09937728 29.90428858 13.62557407 37.66416348 6.875 46.25 C1.93593267 51.60600159 -5.41421716 55.53812259 -12.71484375 56.2734375 C-22.72543184 56.5889227 -31.47534482 54.66781842 -39 47.6875 C-45.69169853 40.22870432 -47.37436394 32.38817484 -47.2734375 22.578125 C-46.62632913 14.11024973 -42.24527247 7.59878919 -36 2 C-25.06644383 -5.44294448 -11.72329789 -6.83358048 0 0 Z " fill="#EC7121" transform="translate(1187,154)"/>
<path d="M0 0 C0.66 0.33 1.32 0.66 2 1 C-1.96 4.96 -5.92 8.92 -10 13 C-10.66 12.67 -11.32 12.34 -12 12 C-8.32167983 7.47384007 -4.58913637 3.60575001 0 0 Z " fill="#C56227" transform="translate(1247,236)"/>
<path d="M0 0 C0.66 0.33 1.32 0.66 2 1 C-0.97 3.97 -3.94 6.94 -7 10 C-7.66 9.67 -8.32 9.34 -9 9 C-6.31941902 5.42589203 -3.57410797 2.68058098 0 0 Z " fill="#BF6028" transform="translate(1402,154)"/>
</svg>
